<?xml version="1.0" standalone="no"?>
<!DOCTYPE svg PUBLIC "-//W3C//DTD SVG 20010904//EN"
 "http://www.w3.org/TR/2001/REC-SVG-20010904/DTD/svg10.dtd">
<svg version="1.0" xmlns="http://www.w3.org/2000/svg"
 width="426.000000pt" height="426.000000pt" viewBox="0 0 426.000000 426.000000"
 preserveAspectRatio="xMidYMid meet">
<metadata>
Created by potrace 1.11, written by Peter Selinger 2001-2013
</metadata>
<g transform="translate(0.000000,426.000000) scale(0.100000,-0.100000)"
fill="#000000" stroke="none">
<path d="M1985 4120 c-63 -7 -200 -50 -238 -74 -12 -8 -40 -19 -62 -26 -22 -7
-53 -22 -70 -33 -16 -12 -42 -29 -57 -39 -15 -10 -32 -18 -38 -18 -6 0 -13 -6
-16 -14 -3 -8 -17 -19 -32 -25 -28 -12 -57 -50 -102 -136 -53 -100 -82 -280
-81 -515 l0 -175 45 -137 c62 -186 61 -195 -20 -152 -53 28 -89 26 -99 -7 -9
-28 19 -144 90 -365 22 -68 62 -124 95 -131 25 -4 31 -11 35 -42 21 -127 41
-204 66 -261 l30 -64 -32 -26 c-84 -68 -148 -98 -222 -105 -53 -5 -97 -18
-167 -50 -116 -52 -304 -121 -465 -170 -66 -20 -137 -48 -158 -61 -20 -14 -75
-38 -121 -55 -102 -37 -220 -103 -291 -164 -29 -25 -58 -45 -64 -45 -8 0 -11
-178 -11 -615 l0 -615 2130 0 2130 0 0 645 0 645 -77 45 c-43 25 -98 52 -123
61 -129 46 -186 72 -297 135 -112 63 -246 115 -343 134 -19 4 -81 22 -138 41
-57 19 -132 38 -168 43 -64 9 -65 10 -167 107 l-103 97 24 61 c20 49 37 122
62 273 0 1 12 1 27 0 22 -2 31 5 45 33 9 19 22 60 28 90 6 30 19 96 30 145 28
132 39 228 27 243 -15 19 -54 14 -87 -9 -16 -12 -36 -19 -45 -16 -14 6 -14 10
-1 42 35 83 77 315 72 395 -2 25 -6 95 -10 155 -4 61 -9 135 -11 165 -2 30 -6
75 -10 100 -7 49 -43 130 -57 130 -5 0 -14 14 -19 30 -6 17 -14 30 -18 30 -3
0 -33 25 -66 55 -33 30 -65 55 -71 55 -6 0 -23 11 -38 25 -25 23 -111 68 -211
110 -113 47 -371 74 -530 55z"/>
</g>
</svg>
